<svg xmlns="http://www.w3.org/2000/svg" width="1200" height="1200" viewBox="0 0 1200 1200">
  <defs>
    <linearGradient id="bg" x1="0" y1="0" x2="1" y2="1">
      <stop offset="0" stop-color="#071015"/>
      <stop offset="0.7" stop-color="#102b34"/>
      <stop offset="1" stop-color="#111820"/>
    </linearGradient>
  </defs>
  <rect width="1200" height="1200" fill="url(#bg)"/>
  <g opacity="0.13" stroke="#8ee7ff" stroke-width="2">
    <path d="M100 0v1200M240 0v1200M380 0v1200M520 0v1200M660 0v1200M800 0v1200M940 0v1200M1080 0v1200"/>
    <path d="M0 100h1200M0 240h1200M0 380h1200M0 520h1200M0 660h1200M0 800h1200M0 940h1200M0 1080h1200"/>
  </g>
  <rect x="90" y="90" width="1020" height="1020" rx="34" fill="none" stroke="#8ee7ff" stroke-opacity="0.45" stroke-width="4"/>
  <text x="130" y="170" fill="#8ee7ff" font-family="Arial, Helvetica, sans-serif" font-size="30" font-weight="700" letter-spacing="7">120+ PAGE FIELD MANUAL</text>
  <text x="130" y="280" fill="#ffffff" font-family="Arial, Helvetica, sans-serif" font-size="86" font-weight="900">THE VEHICLE</text>
  <text x="130" y="372" fill="#ffffff" font-family="Arial, Helvetica, sans-serif" font-size="86" font-weight="900">LONGEVITY</text>
  <text x="130" y="464" fill="#ffffff" font-family="Arial, Helvetica, sans-serif" font-size="86" font-weight="900">BLACK BOOK</text>
  <text x="130" y="548" fill="#dce9ed" font-family="Georgia, Times, serif" font-size="42">31 checks for buying, repairability,</text>
  <text x="130" y="602" fill="#dce9ed" font-family="Georgia, Times, serif" font-size="42">diagnostics, records, and keep-or-sell math.</text>
  <rect x="260" y="690" width="680" height="250" rx="24" fill="#0b2028" stroke="#8ee7ff" stroke-opacity="0.48" stroke-width="4"/>
  <path d="M368 820c36-88 82-132 136-132h188c58 0 107 47 146 132h58c33 0 60 27 60 60v52H306v-52c0-33 27-60 60-60h2z" fill="#1f5060" stroke="#8ee7ff" stroke-width="10"/>
  <circle cx="476" cy="938" r="56" fill="#071015" stroke="#8ee7ff" stroke-width="12"/>
  <circle cx="772" cy="938" r="56" fill="#071015" stroke="#8ee7ff" stroke-width="12"/>
  <rect x="130" y="1036" width="940" height="74" rx="16" fill="#e63f35"/>
  <text x="600" y="1086" fill="#ffffff" text-anchor="middle" font-family="Arial, Helvetica, sans-serif" font-size="34" font-weight="900">$57 VALUE · $17 TODAY</text>
</svg>
