<svg xmlns="http://www.w3.org/2000/svg" width="1200" height="1200" viewBox="0 0 1200 1200">
  <defs>
    <linearGradient id="bg" x1="0" y1="0" x2="1" y2="1">
      <stop offset="0" stop-color="#0d0b09"/>
      <stop offset="0.62" stop-color="#2a1712"/>
      <stop offset="1" stop-color="#10242b"/>
    </linearGradient>
  </defs>
  <rect width="1200" height="1200" fill="url(#bg)"/>
  <g opacity="0.13" stroke="#f28a6a" stroke-width="2">
    <path d="M100 0v1200M240 0v1200M380 0v1200M520 0v1200M660 0v1200M800 0v1200M940 0v1200M1080 0v1200"/>
    <path d="M0 100h1200M0 240h1200M0 380h1200M0 520h1200M0 660h1200M0 800h1200M0 940h1200M0 1080h1200"/>
  </g>
  <rect x="90" y="90" width="1020" height="1020" rx="34" fill="none" stroke="#f28a6a" stroke-opacity="0.5" stroke-width="4"/>
  <text x="130" y="170" fill="#f28a6a" font-family="Arial, Helvetica, sans-serif" font-size="30" font-weight="700" letter-spacing="7">100+ PAGE COMPANION EBOOK</text>
  <text x="130" y="286" fill="#ffffff" font-family="Arial, Helvetica, sans-serif" font-size="90" font-weight="900">VEHICLE</text>
  <text x="130" y="382" fill="#ffffff" font-family="Arial, Helvetica, sans-serif" font-size="90" font-weight="900">OWNERSHIP</text>
  <text x="130" y="478" fill="#ffffff" font-family="Arial, Helvetica, sans-serif" font-size="90" font-weight="900">SECRETS</text>
  <text x="130" y="558" fill="#ffe0d6" font-family="Georgia, Times, serif" font-size="42">Hidden cost files for dealer-only systems,</text>
  <text x="130" y="612" fill="#ffe0d6" font-family="Georgia, Times, serif" font-size="42">software lockouts, parts access, and quotes.</text>
  <rect x="280" y="690" width="640" height="244" rx="24" fill="#21100d" stroke="#f28a6a" stroke-opacity="0.48" stroke-width="4"/>
  <path d="M396 776h400M396 842h400M396 908h400" stroke="#f28a6a" stroke-width="18" stroke-linecap="round"/>
  <circle cx="396" cy="776" r="19" fill="#8ee7ff"/>
  <circle cx="396" cy="842" r="19" fill="#8ee7ff"/>
  <circle cx="396" cy="908" r="19" fill="#8ee7ff"/>
  <rect x="130" y="1036" width="940" height="74" rx="16" fill="#e63f35"/>
  <text x="600" y="1086" fill="#ffffff" text-anchor="middle" font-family="Arial, Helvetica, sans-serif" font-size="34" font-weight="900">$40 VALUE · $17 TODAY</text>
</svg>
